<svg preserveAspectRatio="none" width="100%" height="100%" overflow="visible" style="display: block;" viewBox="0 0 18.6667 18.6667" fill="none" xmlns="http://www.w3.org/2000/svg">
<path id="Icon" d="M13.9167 4.75H13.925M5.16667 1H13.5C15.8012 1 17.6667 2.86548 17.6667 5.16667V13.5C17.6667 15.8012 15.8012 17.6667 13.5 17.6667H5.16667C2.86548 17.6667 1 15.8012 1 13.5V5.16667C1 2.86548 2.86548 1 5.16667 1ZM12.6667 8.80833C12.7695 9.50187 12.651 10.2102 12.3281 10.8325C12.0052 11.4548 11.4943 11.9595 10.868 12.2747C10.2418 12.5899 9.53204 12.6997 8.83982 12.5883C8.1476 12.4769 7.50813 12.1501 7.01237 11.6543C6.5166 11.1585 6.18978 10.5191 6.07839 9.82685C5.967 9.13463 6.07672 8.42491 6.39194 7.79865C6.70716 7.17238 7.21182 6.66145 7.83415 6.33853C8.45649 6.01562 9.16479 5.89716 9.85833 6C10.5658 6.1049 11.2207 6.43455 11.7264 6.94026C12.2321 7.44596 12.5618 8.1009 12.6667 8.80833Z" stroke="var(--stroke-0, #F7F2EC)" stroke-width="2" stroke-linecap="round" stroke-linejoin="round"/>
</svg>
