<svg preserveAspectRatio="none" width="100%" height="100%" overflow="visible" style="display: block;" viewBox="0 0 20 20" fill="none" xmlns="http://www.w3.org/2000/svg">
<g id="eYL1x3">
<path id="Vector" d="M20 10C20 15.5228 15.5228 20 10 20C4.47725 20 0 15.5228 0 10C0 4.47725 4.4768 0 10 0C15.5232 0 20 4.47725 20 10ZM14.8437 7.24463C13.8984 7.19521 12.95 6.80025 12.4695 5.95244C12.2331 5.53522 12.0834 4.99555 12.0362 4.5191L11.977 4.44519H10.2663V12.1111C10.2663 14.2942 6.8853 14.308 6.8853 12.1111C6.8853 11.4414 7.57859 10.4444 8.28881 10.4444H9.11078V8.66684H8.15522C7.26467 8.66684 6.07044 9.57209 5.62561 10.3148C3.77772 13.3997 7.26512 16.8987 10.3402 15.0739C11.0388 14.6594 11.9993 13.4861 11.9993 12.6445V8.15611L12.0875 8.11114C12.8707 8.67798 13.8717 9.0106 14.8433 9.02262V7.24508L14.8437 7.24463Z" fill="var(--fill-0, #F7F2EC)"/>
</g>
</svg>
