<svg preserveAspectRatio="none" width="100%" height="100%" overflow="visible" style="display: block;" viewBox="0 0 843.005 972.007" fill="none" xmlns="http://www.w3.org/2000/svg">
<path id="Vector" d="M635.277 129.626C721.969 170.851 808.072 233.195 833.905 325.616C846.527 370.789 843.35 418.674 840.066 465.469C835.769 526.674 831.472 587.87 827.184 649.076C825.397 674.539 823.205 701.256 809.241 722.627C787.068 756.545 743.138 766.67 704.915 780.154C623.949 808.706 554.911 862.605 480.966 906.214C407.021 949.823 321.082 984.301 236.824 967.805C158.881 952.545 93.9758 894.371 56.1874 824.546C18.399 754.721 4.85008 674.21 1.12243 594.916C-3.92825 487.457 8.09488 379.206 36.6124 275.463C57.7325 198.63 89.4079 121.923 146.733 66.5475C200.61 14.5021 267.437 -3.95317 340.667 0.689606C403.12 4.64706 454.67 50.0034 510.507 75.0319C551.936 93.603 594.263 110.118 635.277 129.616V129.626Z" fill="var(--fill-0, #378CDA)"/>
</svg>
