<svg preserveAspectRatio="none" width="100%" height="100%" overflow="visible" style="display: block;" viewBox="0 0 319.439 611.804" fill="none" xmlns="http://www.w3.org/2000/svg">
<g id="clippath">
<path id="Vector" d="M319.439 145.577C319.439 95.394 308.12 58.5897 285.503 35.1538C262.886 11.7179 226.749 0 177.092 0H142.752C93.0948 0 56.8902 11.7179 34.138 35.1538C11.3761 58.5897 0 95.4037 0 145.577C0 195.749 11.4437 233.046 34.3408 257.447C46.4025 270.314 62.1919 279.744 81.6124 285.825L45.5044 611.804H273.249L237.169 286.134C257.025 280.063 273.094 270.526 285.291 257.437C308.053 233.036 319.429 195.749 319.429 145.567L319.439 145.577Z" fill="var(--fill-0, black)"/>
</g>
</svg>
