<svg preserveAspectRatio="none" width="100%" height="100%" overflow="visible" style="display: block;" viewBox="0 0 41.4235 79.4595" fill="none" xmlns="http://www.w3.org/2000/svg">
<path id="Vector" d="M41.4235 18.9036C41.4235 12.3865 39.9564 7.60326 37.0224 4.564C34.0883 1.51963 29.4019 0 22.9632 0H18.5112C12.0725 0 7.37594 1.52473 4.42658 4.564C1.47722 7.60836 0 12.3865 0 18.9036C0 25.4207 1.48232 30.2652 4.45205 33.4319C6.01588 35.1045 8.06362 36.3284 10.58 37.1188L5.89872 79.4595H35.4331L30.7569 37.1596C33.3293 36.3692 35.4127 35.13 36.9969 33.4319C39.9463 30.2652 41.4235 25.4207 41.4235 18.9036ZM11.9044 18.8373C13.6058 17.4401 15.3071 16.4661 17.0085 15.8797C17.3294 18.2815 19.3771 20.1326 21.8579 20.1326C24.0126 20.1326 25.8413 18.7353 26.4984 16.7976C27.507 17.3381 28.5105 18.0112 29.5191 18.8373C23.6458 21.1831 17.7777 21.1831 11.9044 18.8373Z" fill="var(--fill-0, #32261F)"/>
</svg>
