<svg preserveAspectRatio="none" width="100%" height="100%" overflow="visible" style="display: block;" viewBox="0 0 34.5009 38.1897" fill="none" xmlns="http://www.w3.org/2000/svg">
<path id="Vector" d="M27.6649 0.484445C25.2147 0.16318 22.6118 0 19.856 0C13.2747 0 8.31831 1.52473 4.992 4.564C1.66569 7.60836 0 12.3457 0 18.771C0 25.1963 1.69117 30.0408 5.06842 33.2993C8.45076 36.5579 13.3307 38.1897 19.7184 38.1897C26.1062 38.1897 31.0319 37.5829 34.5009 36.3641V20.3009L33.2121 20.408C30.5633 20.6221 27.5579 20.7292 24.196 20.7292C22.408 20.7292 21.1549 20.6935 20.4418 20.6221V17.6696C26.7022 17.6696 31.3885 17.9398 34.5009 18.4753V1.93268L32.8912 1.44824C31.8521 1.12697 30.11 0.805709 27.6598 0.479345L27.6649 0.484445Z" fill="var(--fill-0, #32261F)"/>
</svg>
