<svg preserveAspectRatio="none" width="100%" height="100%" overflow="visible" style="display: block;" viewBox="0 0 34.506 38.1897" fill="none" xmlns="http://www.w3.org/2000/svg">
<path id="Vector" d="M19.7235 38.1897C26.1113 38.1897 31.037 37.5829 34.506 36.3641V20.3009L33.2172 20.408C30.5684 20.6221 27.563 20.7292 24.2011 20.7292C22.4131 20.7292 21.16 20.6935 20.4469 20.6221V17.6696C26.7072 17.6696 31.3936 17.9398 34.506 18.4753V1.93269L32.8963 1.44824C31.8572 1.12698 30.1151 0.805711 27.6649 0.479347C25.2147 0.163182 22.6118 0 19.856 0C13.2747 0 8.31831 1.52473 4.992 4.564C1.66569 7.60836 0 12.3457 0 18.771C0 25.1963 1.69118 30.0408 5.06842 33.2993C8.45076 36.5579 13.3307 38.1897 19.7184 38.1897H19.7235Z" fill="var(--fill-0, #32261F)"/>
</svg>
