<svg preserveAspectRatio="none" width="100%" height="100%" overflow="visible" style="display: block;" viewBox="0 0 51.7794 99.3243" fill="none" xmlns="http://www.w3.org/2000/svg">
<path d="M51.7794 23.6295C51.7794 15.4832 49.9456 9.50408 46.278 5.705C42.6104 1.89954 36.7524 0 28.7041 0H23.139C15.0906 0 9.21993 1.90592 5.53323 5.705C1.84653 9.51045 0 15.4832 0 23.6295C0 31.7759 1.8529 37.8315 5.56507 41.7899C7.51984 43.8807 10.0795 45.4105 13.225 46.3985L7.3734 99.3243H44.2913L38.4461 46.4495C41.6616 45.4615 44.2659 43.9125 46.2461 41.7899C49.9328 37.8315 51.7794 31.7759 51.7794 23.6295ZM14.8805 23.5467C22.2221 17.5293 29.5573 17.5293 36.8988 23.5467C29.5573 26.4788 22.2221 26.4788 14.8805 23.5467Z" fill="#378CDA"/>
<circle cx="27.325" cy="19.055" r="6.127" fill="#32261F"/>
</svg>
