<svg width="313" height="598" viewBox="0 0 313 598" fill="none" xmlns="http://www.w3.org/2000/svg">
  <circle cx="157.5" cy="151.5" r="80.5" fill="white"/>
  <path d="M165 151C185.435 151 202 134.658 202 114.5C202 94.3416 185.435 78 165 78C144.565 78 128 94.3416 128 114.5C128 134.658 144.565 151 165 151Z" fill="#32261F"/>
  <path d="M313 142.295C313 93.2516 301.915 57.2557 279.745 34.3841C257.575 11.4742 222.164 0 173.513 0H139.872C91.2211 0 55.7334 11.4742 33.4477 34.3458C11.1621 57.2557 0 93.2516 0 142.295C0 191.339 11.2006 227.795 33.6402 251.626C45.4566 264.213 60.9295 273.423 79.9436 279.371L44.5713 598H267.736L232.402 279.678C251.84 273.73 267.582 264.405 279.552 251.626C301.838 227.795 313 191.339 313 142.295ZM89.9509 141.796C134.33 105.57 178.67 105.57 223.049 141.796C178.67 159.449 134.33 159.449 89.9509 141.796Z" fill="#32261F"/>
</svg>
