<svg viewBox="0 0 255 100" fill="none" xmlns="http://www.w3.org/2000/svg">
  <!-- K (top-left) -->
  <g transform="translate(0.255,0.67)">
    <path d="M23.0753 33.6435H24.5525L27.2969 46.3985H50.907L42.725 23.1642L50.907 0H27.4369L24.5525 20.9523H23.0753V0H0V46.3985H23.0753V33.6435Z" fill="#32261F"/>
  </g>
  <!-- N -->
  <g transform="translate(54.06,0.67)">
    <path d="M21.1969 32.834L24.7499 46.3985H45.4056V0H24.7499V13.8322L20.522 0H0V46.3985H21.1969V32.834Z" fill="#32261F"/>
  </g>
  <!-- C (top) -->
  <g transform="translate(157.08,0)">
    <path d="M24.6544 47.7371C32.6391 47.7371 38.7963 46.9786 43.1325 45.4551V25.3761L41.5215 25.5099C38.2105 25.7777 34.4538 25.9115 30.2513 25.9115C28.0164 25.9115 26.45 25.8669 25.5586 25.7777V22.0869C33.3841 22.0869 39.242 22.4248 43.1325 23.0941V2.41586L41.1204 1.8103C39.8215 1.40872 37.6438 1.00714 34.5811 0.599184C31.5184 0.203978 28.2647 0 24.82 0C16.5933 0 10.3979 1.90592 6.24 5.705C2.08212 9.51045 0 15.4322 0 23.4638C0 31.4954 2.11397 37.551 6.33553 41.6242C10.5635 45.6973 16.6634 47.7371 24.648 47.7371H24.6544Z" fill="#32261F"/>
  </g>
  <!-- K (top-right) -->
  <g transform="translate(204.1,0.67)">
    <path d="M50.907 0H27.4369L24.5525 20.9523H23.0753V0H0V46.3985H23.0753V33.6435H24.5525L27.3032 46.3985H50.907L42.725 23.1642L50.907 0Z" fill="#32261F"/>
  </g>
  <!-- T -->
  <g transform="translate(0,52.93)">
    <path d="M0 19.5372H8.04834V46.3985H33.1357V19.5372H41.3178V0H0V19.5372Z" fill="#32261F"/>
  </g>
  <!-- W -->
  <g transform="translate(44.19,52.93)">
    <path d="M42.05 22.0232H40.5728L38.7645 1.141H25.2147L23.6038 22.0232H22.1966L20.452 0H0L6.57111 46.3985H30.1112L31.1173 33.6372H32.5245L33.6006 46.3985H57.4782L63.9156 0H43.731L42.05 22.0232Z" fill="#32261F"/>
  </g>
  <!-- C (bottom) -->
  <g transform="translate(149.51,52.26)">
    <path d="M34.5811 0.605556C31.5184 0.203976 28.2647 0 24.82 0C16.5933 0 10.3979 1.90591 6.24 5.705C2.08212 9.51045 0 15.4322 0 23.4638C0 31.4954 2.11396 37.551 6.33552 41.6242C10.5634 45.6973 16.6634 47.7371 24.648 47.7371C32.6327 47.7371 38.7899 46.9786 43.1261 45.4551V25.3761L41.5152 25.5099C38.2041 25.7777 34.4474 25.9115 30.245 25.9115C28.01 25.9115 26.4436 25.8669 25.5522 25.7777V22.0869C33.3777 22.0869 39.2357 22.4248 43.1261 23.0941V2.41586L41.114 1.8103C39.8151 1.40872 37.6375 1.00714 34.5748 0.599181L34.5811 0.605556Z" fill="#32261F"/>
  </g>
  <!-- E -->
  <g transform="translate(196.55,52.93)">
    <path d="M23.0753 26.4533H37.561V22.2272H23.0753V19.5372H37.561V0H0V46.3985H38.1659V29.1433H23.0753V26.4533Z" fill="#32261F"/>
  </g>
  <!-- Eye dot -->
  <g transform="translate(123.55,12.91)">
    <path d="M6.1254 12.2642C9.50836 12.2642 12.2508 9.51873 12.2508 6.13208C12.2508 2.74542 9.50836 0 6.1254 0C2.74243 0 0 2.74542 0 6.13208C0 9.51873 2.74243 12.2642 6.1254 12.2642Z" fill="#32261F"/>
  </g>
  <!-- Keyhole (spans both rows) -->
  <g transform="translate(102.36,0.01)">
    <path d="M51.7794 23.6295C51.7794 15.4832 49.9456 9.50408 46.278 5.705C42.6104 1.89954 36.7524 0 28.7041 0H23.139C15.0906 0 9.21993 1.90592 5.53323 5.705C1.84653 9.51045 0 15.4832 0 23.6295C0 31.7759 1.8529 37.8315 5.56507 41.7899C7.51984 43.8807 10.0795 45.4105 13.225 46.3985L7.3734 99.3243H44.2913L38.4461 46.4495C41.6616 45.4615 44.2659 43.9125 46.2461 41.7899C49.9328 37.8315 51.7794 31.7759 51.7794 23.6295ZM14.8805 23.5467C22.2221 17.5293 29.5573 17.5293 36.8988 23.5467C29.5573 26.4788 22.2221 26.4788 14.8805 23.5467Z" fill="#32261F"/>
  </g>
</svg>
