<svg viewBox="0 0 212 83" fill="none" xmlns="http://www.w3.org/2000/svg">
  <!-- K -->
  <g transform="translate(0.21, 0.56) scale(1.039, 1.038)">
    <path d="M18.4602 26.9148H19.642L21.8375 37.1188H40.7256L34.18 18.5314L40.7256 0H21.9496L19.642 16.7619H18.4602V0H0V37.1188H18.4602V26.9148Z" fill="#32261F"/>
  </g>
  <!-- N -->
  <g transform="translate(44.94, 0.56) scale(1.039, 1.038)">
    <path d="M16.9576 26.2672L19.7999 37.1188H36.3245V0H19.7999V11.0658L16.4176 0H0V37.1188H16.9576V26.2672Z" fill="#32261F"/>
  </g>
  <!-- O (C shape) -->
  <g transform="translate(130.59, 0) scale(1.039, 1.038)">
    <path d="M19.7235 38.1897C26.1113 38.1897 31.037 37.5829 34.506 36.3641V20.3009L33.2172 20.408C30.5684 20.6221 27.563 20.7292 24.2011 20.7292C22.4131 20.7292 21.16 20.6935 20.4469 20.6221V17.6696C26.7072 17.6696 31.3936 17.9398 34.506 18.4753V1.93269L32.8963 1.44824C31.8572 1.12698 30.1151 0.805711 27.6649 0.479347C25.2147 0.163182 22.6118 0 19.856 0C13.2747 0 8.31831 1.52473 4.992 4.564C1.66569 7.60836 0 12.3457 0 18.771C0 25.1963 1.69118 30.0408 5.06842 33.2993C8.45076 36.5579 13.3307 38.1897 19.7184 38.1897H19.7235Z" fill="#32261F"/>
  </g>
  <!-- K -->
  <g transform="translate(169.68, 0.56) scale(1.039, 1.038)">
    <path d="M40.7256 0H21.9496L19.642 16.7619H18.4602V0H0V37.1188H18.4602V26.9148H19.642L21.8426 37.1188H40.7256L34.18 18.5314L40.7256 0Z" fill="#32261F"/>
  </g>
  <!-- Keyhole (center, spans both rows) -->
  <g transform="translate(85.10, 0.008) scale(1.039, 1.038)">
    <path d="M41.4235 18.9036C41.4235 12.3865 39.9564 7.60326 37.0224 4.564C34.0883 1.51963 29.4019 0 22.9632 0H18.5112C12.0725 0 7.37594 1.52473 4.42658 4.564C1.47722 7.60836 0 12.3865 0 18.9036C0 25.4207 1.48232 30.2652 4.45205 33.4319C6.01588 35.1045 8.06362 36.3284 10.58 37.1188L5.89872 79.4595H35.4331L30.7569 37.1596C33.3293 36.3692 35.4127 35.13 36.9969 33.4319C39.9463 30.2652 41.4235 25.4207 41.4235 18.9036ZM11.9044 18.8373C13.6058 17.4401 15.3071 16.4661 17.0085 15.8797C17.3294 18.2815 19.3771 20.1326 21.8579 20.1326C24.0126 20.1326 25.8413 18.7353 26.4984 16.7976C27.507 17.3381 28.5105 18.0112 29.5191 18.8373C23.6458 21.1831 17.7777 21.1831 11.9044 18.8373Z" fill="#32261F"/>
  </g>
  <!-- T -->
  <g transform="translate(0, 43.93) scale(1.039, 1.038)">
    <path d="M0 15.6298H6.43867V37.1188H26.5086V15.6298H33.0542V0H0V15.6298Z" fill="#32261F"/>
  </g>
  <!-- W -->
  <g transform="translate(36.74, 43.93) scale(1.039, 1.038)">
    <path d="M33.64 17.6186H32.4582L31.0116 0.9128H20.1718L18.883 17.6186H17.7573L16.3616 0H0L5.25689 37.1188H24.089L24.8938 26.9097H26.0196L26.8804 37.1188H45.9825L51.1324 0H34.9848L33.64 17.6186Z" fill="#32261F"/>
  </g>
  <!-- I (C shape) -->
  <g transform="translate(124.30, 43.38) scale(1.039, 1.038)">
    <path d="M27.6649 0.484445C25.2147 0.16318 22.6118 0 19.856 0C13.2747 0 8.31831 1.52473 4.992 4.564C1.66569 7.60836 0 12.3457 0 18.771C0 25.1963 1.69117 30.0408 5.06842 33.2993C8.45076 36.5579 13.3307 38.1897 19.7184 38.1897C26.1062 38.1897 31.0319 37.5829 34.5009 36.3641V20.3009L33.2121 20.408C30.5633 20.6221 27.5579 20.7292 24.196 20.7292C22.408 20.7292 21.1549 20.6935 20.4418 20.6221V17.6696C26.7022 17.6696 31.3885 17.9398 34.5009 18.4753V1.93268L32.8912 1.44824C31.8521 1.12697 30.11 0.805709 27.6598 0.479345L27.6649 0.484445Z" fill="#32261F"/>
  </g>
  <!-- E -->
  <g transform="translate(163.41, 43.93) scale(1.039, 1.038)">
    <path d="M18.4602 21.1627H30.0488V17.7817H18.4602V15.6298H30.0488V0H0V37.1188H30.5327V23.3146H18.4602V21.1627Z" fill="#32261F"/>
  </g>
</svg>
