<svg preserveAspectRatio="none" width="100%" height="100%" overflow="visible" style="display: block;" viewBox="0 0 111 114" fill="none" xmlns="http://www.w3.org/2000/svg">
<g id="Layer_1" clip-path="url(#clip0_7105_1036)">
<path id="Vector" d="M110.935 13.3113V80.2199H104.607H104.398V13.3113H110.935Z" fill="var(--fill-0, #34261E)"/>
<path id="Vector_2" d="M104.607 80.2199V94.8132H98.0702V94.498V80.2199H104.398H104.607Z" fill="var(--fill-0, #34261E)"/>
<path id="Vector_3" d="M104.398 13.3113V80.2199H98.0702V94.498H91.5334V107.311H42.0237V100.426H35.487V93.804H28.354V87.1815H20.7452V73.6742H14.2084V67.0517H6.60216V51.4437H21.8172V58.0026H29.745V73.5973H36.2818V6.68874H48.4089V51.4437H54.9457V28.5007H67.2898V51.3801H73.9442V35.1232H85.734V51.4437H92.2708V13.3113H104.398ZM101.603 22.4026V15.9603H95.0659V22.4026H101.603ZM45.5667 15.8702V9.42517H39.0299V15.8702H45.5667Z" fill="var(--fill-0, #008BE0)"/>
<path id="Vector_4" d="M104.398 6.68874H92.2708V13.3113H104.398V6.68874Z" fill="var(--fill-0, #34261E)"/>
<path id="Vector_5" d="M101.603 15.9603H95.0659V22.4026H101.603V15.9603Z" fill="var(--fill-0, #FA84E3)"/>
<path id="Vector_6" d="M98.0702 107.311H91.5334V113.934H98.0702V107.311Z" fill="var(--fill-0, #34261E)"/>
<path id="Vector_7" d="M98.0702 94.8132V107.311H91.5334V94.498H98.0702V94.8132Z" fill="var(--fill-0, #34261E)"/>
<path id="Vector_8" d="M92.2708 13.3113V51.4437H85.734V35.1232H86.2883V28.5007H85.734V6.68874H87.3917V13.3113H92.2708Z" fill="var(--fill-0, #34261E)"/>
<path id="Vector_9" d="M92.2708 6.68874H87.3917V13.3113H92.2708V6.68874Z" fill="var(--fill-0, #34261E)"/>
<path id="Vector_10" d="M91.5334 107.311H42.0237V113.934H91.5334V107.311Z" fill="var(--fill-0, #34261E)"/>
<path id="Vector_11" d="M86.2883 28.5007H85.734V35.1232H86.2883V28.5007Z" fill="var(--fill-0, #34261E)"/>
<path id="Vector_12" d="M85.734 28.5007H73.9442V35.1232H85.734V28.5007Z" fill="var(--fill-0, #34261E)"/>
<path id="Vector_13" d="M73.9442 35.1232H67.2898V51.3801H73.9442V35.1232Z" fill="var(--fill-0, #34261E)"/>
<path id="Vector_14" d="M73.9442 28.5007H67.2898V35.1232H73.9442V28.5007Z" fill="var(--fill-0, #34261E)"/>
<path id="Vector_15" d="M67.2898 21.8781H54.9457V28.5007H67.2898V21.8781Z" fill="var(--fill-0, #34261E)"/>
<path id="Vector_16" d="M54.9457 28.5007H48.4089V51.4437H54.9457V28.5007Z" fill="var(--fill-0, #34261E)"/>
<path id="Vector_17" d="M54.9457 21.8781H48.4089V28.5007H54.9457V21.8781Z" fill="var(--fill-0, #34261E)"/>
<path id="Vector_18" d="M54.9457 6.68874H48.4089V21.8781H54.9457V6.68874Z" fill="var(--fill-0, #34261E)"/>
<path id="Vector_19" d="M54.9457 0.0662252V6.68874H48.4089H36.2818V0.0662252H54.9457Z" fill="var(--fill-0, #34261E)"/>
<path id="Vector_20" d="M45.5667 9.42517H39.0299V15.8702H45.5667V9.42517Z" fill="var(--fill-0, #FA84E3)"/>
<path id="Vector_21" d="M42.0237 107.311H35.487V113.934H42.0237V107.311Z" fill="var(--fill-0, #34261E)"/>
<path id="Vector_22" d="M42.0237 100.426H35.487V107.311H42.0237V100.426Z" fill="var(--fill-0, #34261E)"/>
<path id="Vector_23" d="M36.2818 6.68874V73.5973H29.745V58.0026H33.9417V51.3801H29.745V6.68874H36.2818Z" fill="var(--fill-0, #34261E)"/>
<path id="Vector_24" d="M35.487 93.804V100.426H27.8807V93.804H28.354H35.487Z" fill="var(--fill-0, #34261E)"/>
<path id="Vector_25" d="M33.9417 51.3801H29.745V58.0026H33.9417V51.3801Z" fill="var(--fill-0, #34261E)"/>
<path id="Vector_26" d="M29.745 51.3801V58.0026H21.8172V51.4437V51.3801H29.745Z" fill="var(--fill-0, #34261E)"/>
<path id="Vector_27" d="M28.354 87.1815V93.804H27.8807H20.7452V87.1815H28.354Z" fill="var(--fill-0, #34261E)"/>
<path id="Vector_28" d="M21.8172 51.3801V51.4437H6.60216V44.8212H21.8172V51.3801Z" fill="var(--fill-0, #34261E)"/>
<path id="Vector_29" d="M20.7452 73.6742H14.2084V87.1815H20.7452V73.6742Z" fill="var(--fill-0, #34261E)"/>
<path id="Vector_30" d="M14.2084 67.0517H6.60216V73.6742H14.2084V67.0517Z" fill="var(--fill-0, #34261E)"/>
<path id="Vector_31" d="M6.60216 51.6371H0.0653679V67.0517H6.60216V51.6371Z" fill="var(--fill-0, #34261E)"/>
</g>
<defs>
<clipPath id="clip0_7105_1036">
<rect width="111" height="114" fill="white"/>
</clipPath>
</defs>
</svg>
